<svg xmlns="http://www.w3.org/2000/svg" xmlns:xlink="http://www.w3.org/1999/xlink" width="110" zoomAndPan="magnify" viewBox="0 0 82.5 30.000001" height="40" preserveAspectRatio="xMidYMid meet" version="1.0"><defs><filter x="0%" y="0%" width="100%" height="100%" id="d81fdbd23e"><feColorMatrix values="0 0 0 0 1 0 0 0 0 1 0 0 0 0 1 0 0 0 1 0" color-interpolation-filters="sRGB"/></filter><g/><clipPath id="324a418052"><path d="M 4 3.410156 L 26.296875 3.410156 L 26.296875 25 L 4 25 Z M 4 3.410156 " clip-rule="nonzero"/></clipPath><clipPath id="22744754bd"><path d="M 10.484375 10.417969 L 19.835938 10.417969 L 19.835938 18.613281 L 10.484375 18.613281 Z M 10.484375 10.417969 " clip-rule="nonzero"/></clipPath><clipPath id="336c7820d2"><path d="M 10.484375 12.835938 C 10.484375 15.4375 15.152344 18.613281 15.152344 18.613281 C 15.152344 18.613281 19.804688 15.417969 19.824219 12.835938 C 19.824219 11.503906 18.738281 10.417969 17.40625 10.417969 C 16.382812 10.417969 15.5 11.074219 15.152344 11.976562 C 14.808594 11.074219 13.925781 10.417969 12.902344 10.417969 C 11.570312 10.417969 10.484375 11.503906 10.484375 12.835938 " clip-rule="nonzero"/></clipPath><mask id="3afeff7731"><g filter="url(#d81fdbd23e)"><rect x="-8.25" width="99" fill="#000000" y="-3" height="36.000001" fill-opacity="0.82"/></g></mask><clipPath id="569c59215b"><path d="M 0.4375 0.09375 L 7.878906 0.09375 L 7.878906 6.613281 L 0.4375 6.613281 Z M 0.4375 0.09375 " clip-rule="nonzero"/></clipPath><clipPath id="f6271a07ae"><path d="M 0.4375 2.015625 C 0.4375 4.085938 4.152344 6.613281 4.152344 6.613281 C 4.152344 6.613281 7.855469 4.070312 7.871094 2.015625 C 7.871094 0.957031 7.007812 0.09375 5.949219 0.09375 C 5.132812 0.09375 4.429688 0.613281 4.152344 1.332031 C 3.878906 0.613281 3.175781 0.09375 2.359375 0.09375 C 1.300781 0.09375 0.4375 0.957031 0.4375 2.015625 " clip-rule="nonzero"/></clipPath><clipPath id="3da4c24676"><rect x="0" width="8" y="0" height="7"/></clipPath></defs><g fill="#183172" fill-opacity="1"><g transform="translate(27.943834, 14.314998)"><g><path d="M 4.40625 -1.90625 C 4.40625 -1.28125 4.179688 -0.785156 3.734375 -0.421875 C 3.296875 -0.0664062 2.757812 0.109375 2.125 0.109375 C 1.3125 0.109375 0.613281 -0.0625 0.03125 -0.40625 L 0.453125 -1.390625 C 0.910156 -0.960938 1.425781 -0.75 2 -0.75 C 2.300781 -0.75 2.5625 -0.832031 2.78125 -1 C 3 -1.164062 3.109375 -1.394531 3.109375 -1.6875 C 3.109375 -1.894531 3.035156 -2.082031 2.890625 -2.25 C 2.753906 -2.414062 2.578125 -2.546875 2.359375 -2.640625 C 2.148438 -2.734375 1.921875 -2.84375 1.671875 -2.96875 C 1.421875 -3.101562 1.191406 -3.234375 0.984375 -3.359375 C 0.773438 -3.492188 0.597656 -3.679688 0.453125 -3.921875 C 0.316406 -4.160156 0.25 -4.4375 0.25 -4.75 C 0.25 -5.351562 0.457031 -5.8125 0.875 -6.125 C 1.300781 -6.445312 1.867188 -6.609375 2.578125 -6.609375 C 2.835938 -6.609375 3.140625 -6.550781 3.484375 -6.4375 C 3.835938 -6.332031 4.109375 -6.210938 4.296875 -6.078125 L 3.6875 -5.3125 C 3.351562 -5.601562 2.941406 -5.75 2.453125 -5.75 C 2.203125 -5.75 1.988281 -5.679688 1.8125 -5.546875 C 1.632812 -5.421875 1.546875 -5.238281 1.546875 -5 C 1.546875 -4.789062 1.613281 -4.609375 1.75 -4.453125 C 1.894531 -4.296875 2.070312 -4.171875 2.28125 -4.078125 C 2.488281 -3.984375 2.71875 -3.867188 2.96875 -3.734375 C 3.21875 -3.609375 3.445312 -3.476562 3.65625 -3.34375 C 3.863281 -3.21875 4.039062 -3.03125 4.1875 -2.78125 C 4.332031 -2.53125 4.40625 -2.238281 4.40625 -1.90625 Z M 4.40625 -1.90625 "/></g></g></g><g fill="#183172" fill-opacity="1"><g transform="translate(32.520558, 14.314998)"><g><path d="M 4.546875 0 L 0.59375 0 L 0.59375 -5.953125 L 0.46875 -6.5 L 4.546875 -6.5 L 4.546875 -5.625 L 1.8125 -5.625 L 1.8125 -3.78125 L 3.90625 -3.78125 L 3.90625 -2.90625 L 1.8125 -2.90625 L 1.8125 -0.875 L 4.546875 -0.875 Z M 4.546875 0 "/></g></g></g><g fill="#183172" fill-opacity="1"><g transform="translate(37.389975, 14.314998)"><g><path d="M 6.96875 -0.015625 L 5.78125 -0.015625 L 5.78125 -4.40625 C 5.78125 -4.488281 5.796875 -4.703125 5.828125 -5.046875 C 5.804688 -5.003906 5.78125 -4.9375 5.75 -4.84375 C 5.726562 -4.757812 5.703125 -4.679688 5.671875 -4.609375 C 5.648438 -4.546875 5.628906 -4.476562 5.609375 -4.40625 L 4.015625 0 L 3.359375 0 L 1.734375 -4.40625 C 1.703125 -4.476562 1.675781 -4.546875 1.65625 -4.609375 C 1.632812 -4.679688 1.609375 -4.757812 1.578125 -4.84375 C 1.554688 -4.9375 1.535156 -5.003906 1.515625 -5.046875 C 1.515625 -4.992188 1.519531 -4.894531 1.53125 -4.75 C 1.550781 -4.601562 1.5625 -4.488281 1.5625 -4.40625 L 1.5625 -0.015625 L 0.59375 -0.015625 L 0.59375 -5.953125 C 0.59375 -5.960938 0.582031 -6.007812 0.5625 -6.09375 C 0.539062 -6.175781 0.519531 -6.257812 0.5 -6.34375 C 0.476562 -6.4375 0.46875 -6.488281 0.46875 -6.5 L 2.171875 -6.5 L 3.5625 -2.765625 C 3.625 -2.585938 3.707031 -2.226562 3.8125 -1.6875 C 3.820312 -1.726562 3.851562 -1.878906 3.90625 -2.140625 C 3.957031 -2.398438 4.007812 -2.597656 4.0625 -2.734375 L 5.40625 -6.5 L 6.96875 -6.5 Z M 6.96875 -0.015625 "/></g></g></g><g fill="#183172" fill-opacity="1"><g transform="translate(44.822717, 14.314998)"><g><path d="M 6.375 -3.234375 C 6.375 -2.265625 6.09375 -1.46875 5.53125 -0.84375 C 4.96875 -0.21875 4.203125 0.09375 3.234375 0.09375 C 2.273438 0.09375 1.523438 -0.21875 0.984375 -0.84375 C 0.441406 -1.476562 0.171875 -2.28125 0.171875 -3.25 C 0.171875 -4.238281 0.441406 -5.039062 0.984375 -5.65625 C 1.523438 -6.28125 2.28125 -6.59375 3.25 -6.59375 C 4.238281 -6.59375 5.003906 -6.28125 5.546875 -5.65625 C 6.097656 -5.039062 6.375 -4.234375 6.375 -3.234375 Z M 5.0625 -3.203125 C 5.0625 -3.515625 5.03125 -3.8125 4.96875 -4.09375 C 4.90625 -4.375 4.804688 -4.644531 4.671875 -4.90625 C 4.546875 -5.164062 4.359375 -5.367188 4.109375 -5.515625 C 3.867188 -5.671875 3.582031 -5.75 3.25 -5.75 C 2.925781 -5.75 2.644531 -5.675781 2.40625 -5.53125 C 2.164062 -5.382812 1.976562 -5.1875 1.84375 -4.9375 C 1.71875 -4.695312 1.625 -4.4375 1.5625 -4.15625 C 1.5 -3.882812 1.46875 -3.597656 1.46875 -3.296875 C 1.46875 -2.984375 1.5 -2.6875 1.5625 -2.40625 C 1.625 -2.125 1.71875 -1.851562 1.84375 -1.59375 C 1.976562 -1.332031 2.164062 -1.125 2.40625 -0.96875 C 2.65625 -0.820312 2.945312 -0.75 3.28125 -0.75 C 3.601562 -0.75 3.882812 -0.820312 4.125 -0.96875 C 4.363281 -1.113281 4.546875 -1.304688 4.671875 -1.546875 C 4.804688 -1.796875 4.90625 -2.054688 4.96875 -2.328125 C 5.03125 -2.609375 5.0625 -2.898438 5.0625 -3.203125 Z M 5.0625 -3.203125 "/></g></g></g><g fill="#183172" fill-opacity="1"><g transform="translate(51.359619, 14.314998)"><g><path d="M 5.4375 -0.546875 C 5.0625 -0.316406 4.710938 -0.148438 4.390625 -0.046875 C 4.066406 0.0546875 3.695312 0.109375 3.28125 0.109375 C 2.28125 0.109375 1.507812 -0.203125 0.96875 -0.828125 C 0.4375 -1.460938 0.171875 -2.285156 0.171875 -3.296875 C 0.171875 -4.253906 0.453125 -5.046875 1.015625 -5.671875 C 1.578125 -6.304688 2.335938 -6.625 3.296875 -6.625 C 3.660156 -6.625 4.039062 -6.566406 4.4375 -6.453125 C 4.84375 -6.347656 5.160156 -6.191406 5.390625 -5.984375 L 4.75 -5.171875 C 4.59375 -5.347656 4.378906 -5.488281 4.109375 -5.59375 C 3.847656 -5.707031 3.59375 -5.765625 3.34375 -5.765625 C 2.90625 -5.765625 2.539062 -5.640625 2.25 -5.390625 C 1.957031 -5.140625 1.757812 -4.835938 1.65625 -4.484375 C 1.550781 -4.140625 1.5 -3.75 1.5 -3.3125 C 1.5 -3.03125 1.535156 -2.742188 1.609375 -2.453125 C 1.679688 -2.160156 1.785156 -1.878906 1.921875 -1.609375 C 2.066406 -1.347656 2.265625 -1.132812 2.515625 -0.96875 C 2.765625 -0.8125 3.046875 -0.734375 3.359375 -0.734375 C 3.910156 -0.734375 4.414062 -0.953125 4.875 -1.390625 Z M 5.4375 -0.546875 "/></g></g></g><g fill="#183172" fill-opacity="1"><g transform="translate(56.894259, 14.314998)"><g/></g></g><g fill="#183172" fill-opacity="1"><g transform="translate(58.934275, 14.314998)"><g><path d="M 5.578125 0 L 4.265625 0 L 3.625 -1.859375 L 1.71875 -1.859375 L 1.046875 0 L 0.015625 0 L 2.3125 -6.5 L 3.28125 -6.5 Z M 3.34375 -2.734375 C 3.050781 -3.597656 2.820312 -4.335938 2.65625 -4.953125 C 2.457031 -4.210938 2.242188 -3.472656 2.015625 -2.734375 Z M 3.34375 -2.734375 "/></g></g></g><g fill="#183172" fill-opacity="1"><g transform="translate(64.531002, 14.314998)"><g><path d="M 4.875 -4.546875 C 4.875 -3.910156 4.644531 -3.425781 4.1875 -3.09375 C 3.738281 -2.769531 3.1875 -2.609375 2.53125 -2.609375 L 1.796875 -2.609375 L 1.796875 0 L 0.578125 0 L 0.578125 -5.953125 C 0.578125 -5.960938 0.554688 -6.046875 0.515625 -6.203125 C 0.484375 -6.367188 0.460938 -6.46875 0.453125 -6.5 L 2.515625 -6.5 C 3.222656 -6.5 3.789062 -6.34375 4.21875 -6.03125 C 4.65625 -5.726562 4.875 -5.234375 4.875 -4.546875 Z M 3.578125 -4.546875 C 3.578125 -4.878906 3.488281 -5.140625 3.3125 -5.328125 C 3.144531 -5.523438 2.894531 -5.625 2.5625 -5.625 L 1.8125 -5.625 L 1.8125 -3.46875 L 2.5625 -3.46875 C 2.875 -3.46875 3.117188 -3.566406 3.296875 -3.765625 C 3.484375 -3.960938 3.578125 -4.222656 3.578125 -4.546875 Z M 3.578125 -4.546875 "/></g></g></g><g fill="#183172" fill-opacity="1"><g transform="translate(69.631036, 14.314998)"><g><path d="M 4.875 -4.546875 C 4.875 -3.910156 4.644531 -3.425781 4.1875 -3.09375 C 3.738281 -2.769531 3.1875 -2.609375 2.53125 -2.609375 L 1.796875 -2.609375 L 1.796875 0 L 0.578125 0 L 0.578125 -5.953125 C 0.578125 -5.960938 0.554688 -6.046875 0.515625 -6.203125 C 0.484375 -6.367188 0.460938 -6.46875 0.453125 -6.5 L 2.515625 -6.5 C 3.222656 -6.5 3.789062 -6.34375 4.21875 -6.03125 C 4.65625 -5.726562 4.875 -5.234375 4.875 -4.546875 Z M 3.578125 -4.546875 C 3.578125 -4.878906 3.488281 -5.140625 3.3125 -5.328125 C 3.144531 -5.523438 2.894531 -5.625 2.5625 -5.625 L 1.8125 -5.625 L 1.8125 -3.46875 L 2.5625 -3.46875 C 2.875 -3.46875 3.117188 -3.566406 3.296875 -3.765625 C 3.484375 -3.960938 3.578125 -4.222656 3.578125 -4.546875 Z M 3.578125 -4.546875 "/></g></g></g><g fill="#183e9f" fill-opacity="1"><g transform="translate(28.344917, 19.991512)"><g><path d="M 2.078125 -1.953125 C 2.078125 -1.671875 1.976562 -1.457031 1.78125 -1.3125 C 1.59375 -1.175781 1.359375 -1.109375 1.078125 -1.109375 L 0.765625 -1.109375 L 0.765625 0 L 0.25 0 L 0.25 -2.546875 C 0.25 -2.554688 0.238281 -2.59375 0.21875 -2.65625 C 0.207031 -2.726562 0.195312 -2.769531 0.1875 -2.78125 L 1.078125 -2.78125 C 1.378906 -2.78125 1.617188 -2.710938 1.796875 -2.578125 C 1.984375 -2.453125 2.078125 -2.242188 2.078125 -1.953125 Z M 1.53125 -1.953125 C 1.53125 -2.085938 1.492188 -2.195312 1.421875 -2.28125 C 1.347656 -2.363281 1.238281 -2.40625 1.09375 -2.40625 L 0.78125 -2.40625 L 0.78125 -1.484375 L 1.09375 -1.484375 C 1.226562 -1.484375 1.332031 -1.523438 1.40625 -1.609375 C 1.488281 -1.691406 1.53125 -1.804688 1.53125 -1.953125 Z M 1.53125 -1.953125 "/></g></g></g><g fill="#183e9f" fill-opacity="1"><g transform="translate(30.530619, 19.991512)"><g><path d="M 2.4375 -1.0625 C 2.4375 -0.675781 2.335938 -0.394531 2.140625 -0.21875 C 1.941406 -0.0390625 1.679688 0.046875 1.359375 0.046875 C 1.003906 0.046875 0.734375 -0.046875 0.546875 -0.234375 C 0.359375 -0.429688 0.265625 -0.707031 0.265625 -1.0625 L 0.265625 -2.546875 L 0.203125 -2.78125 L 0.796875 -2.78125 L 0.796875 -0.9375 C 0.796875 -0.75 0.847656 -0.597656 0.953125 -0.484375 C 1.066406 -0.367188 1.21875 -0.3125 1.40625 -0.3125 C 1.59375 -0.3125 1.738281 -0.363281 1.84375 -0.46875 C 1.957031 -0.582031 2.015625 -0.738281 2.015625 -0.9375 L 2.015625 -2.78125 L 2.4375 -2.78125 Z M 2.4375 -1.0625 "/></g></g></g><g fill="#183e9f" fill-opacity="1"><g transform="translate(33.218084, 19.991512)"><g><path d="M 1.890625 -0.8125 C 1.890625 -0.539062 1.789062 -0.328125 1.59375 -0.171875 C 1.40625 -0.0234375 1.175781 0.046875 0.90625 0.046875 C 0.5625 0.046875 0.265625 -0.0234375 0.015625 -0.171875 L 0.1875 -0.59375 C 0.382812 -0.40625 0.609375 -0.3125 0.859375 -0.3125 C 0.984375 -0.3125 1.09375 -0.347656 1.1875 -0.421875 C 1.28125 -0.492188 1.328125 -0.59375 1.328125 -0.71875 C 1.328125 -0.8125 1.296875 -0.894531 1.234375 -0.96875 C 1.171875 -1.039062 1.09375 -1.09375 1 -1.125 C 0.914062 -1.164062 0.820312 -1.210938 0.71875 -1.265625 C 0.613281 -1.328125 0.515625 -1.382812 0.421875 -1.4375 C 0.328125 -1.488281 0.25 -1.566406 0.1875 -1.671875 C 0.132812 -1.773438 0.109375 -1.894531 0.109375 -2.03125 C 0.109375 -2.289062 0.195312 -2.488281 0.375 -2.625 C 0.5625 -2.757812 0.800781 -2.828125 1.09375 -2.828125 C 1.207031 -2.828125 1.335938 -2.800781 1.484375 -2.75 C 1.640625 -2.707031 1.757812 -2.65625 1.84375 -2.59375 L 1.578125 -2.265625 C 1.429688 -2.390625 1.253906 -2.453125 1.046875 -2.453125 C 0.941406 -2.453125 0.847656 -2.425781 0.765625 -2.375 C 0.691406 -2.320312 0.65625 -2.242188 0.65625 -2.140625 C 0.65625 -2.054688 0.6875 -1.976562 0.75 -1.90625 C 0.8125 -1.84375 0.882812 -1.789062 0.96875 -1.75 C 1.0625 -1.707031 1.160156 -1.65625 1.265625 -1.59375 C 1.378906 -1.539062 1.476562 -1.484375 1.5625 -1.421875 C 1.65625 -1.367188 1.734375 -1.289062 1.796875 -1.1875 C 1.859375 -1.082031 1.890625 -0.957031 1.890625 -0.8125 Z M 1.890625 -0.8125 "/></g></g></g><g fill="#183e9f" fill-opacity="1"><g transform="translate(35.179515, 19.991512)"><g><path d="M 2.265625 0 L 1.65625 0 L 0.78125 -1.40625 L 0.78125 0 L 0.25 0 L 0.25 -2.546875 C 0.25 -2.546875 0.242188 -2.5625 0.234375 -2.59375 C 0.222656 -2.632812 0.210938 -2.671875 0.203125 -2.703125 C 0.203125 -2.742188 0.203125 -2.769531 0.203125 -2.78125 L 0.78125 -2.78125 L 0.78125 -1.53125 L 1.703125 -2.78125 L 2.1875 -2.78125 L 1.28125 -1.5625 Z M 2.265625 0 "/></g></g></g><g fill="#183e9f" fill-opacity="1"><g transform="translate(37.39943, 19.991512)"><g><path d="M 1.9375 0 L 0.25 0 L 0.25 -2.546875 L 0.203125 -2.78125 L 1.9375 -2.78125 L 1.9375 -2.40625 L 0.78125 -2.40625 L 0.78125 -1.625 L 1.671875 -1.625 L 1.671875 -1.234375 L 0.78125 -1.234375 L 0.78125 -0.375 L 1.9375 -0.375 Z M 1.9375 0 "/></g></g></g><g fill="#183e9f" fill-opacity="1"><g transform="translate(39.486303, 19.991512)"><g><path d="M 1.890625 -0.8125 C 1.890625 -0.539062 1.789062 -0.328125 1.59375 -0.171875 C 1.40625 -0.0234375 1.175781 0.046875 0.90625 0.046875 C 0.5625 0.046875 0.265625 -0.0234375 0.015625 -0.171875 L 0.1875 -0.59375 C 0.382812 -0.40625 0.609375 -0.3125 0.859375 -0.3125 C 0.984375 -0.3125 1.09375 -0.347656 1.1875 -0.421875 C 1.28125 -0.492188 1.328125 -0.59375 1.328125 -0.71875 C 1.328125 -0.8125 1.296875 -0.894531 1.234375 -0.96875 C 1.171875 -1.039062 1.09375 -1.09375 1 -1.125 C 0.914062 -1.164062 0.820312 -1.210938 0.71875 -1.265625 C 0.613281 -1.328125 0.515625 -1.382812 0.421875 -1.4375 C 0.328125 -1.488281 0.25 -1.566406 0.1875 -1.671875 C 0.132812 -1.773438 0.109375 -1.894531 0.109375 -2.03125 C 0.109375 -2.289062 0.195312 -2.488281 0.375 -2.625 C 0.5625 -2.757812 0.800781 -2.828125 1.09375 -2.828125 C 1.207031 -2.828125 1.335938 -2.800781 1.484375 -2.75 C 1.640625 -2.707031 1.757812 -2.65625 1.84375 -2.59375 L 1.578125 -2.265625 C 1.429688 -2.390625 1.253906 -2.453125 1.046875 -2.453125 C 0.941406 -2.453125 0.847656 -2.425781 0.765625 -2.375 C 0.691406 -2.320312 0.65625 -2.242188 0.65625 -2.140625 C 0.65625 -2.054688 0.6875 -1.976562 0.75 -1.90625 C 0.8125 -1.84375 0.882812 -1.789062 0.96875 -1.75 C 1.0625 -1.707031 1.160156 -1.65625 1.265625 -1.59375 C 1.378906 -1.539062 1.476562 -1.484375 1.5625 -1.421875 C 1.65625 -1.367188 1.734375 -1.289062 1.796875 -1.1875 C 1.859375 -1.082031 1.890625 -0.957031 1.890625 -0.8125 Z M 1.890625 -0.8125 "/></g></g></g><g fill="#183e9f" fill-opacity="1"><g transform="translate(41.447734, 19.991512)"><g><path d="M 2.984375 0 L 2.46875 0 L 2.46875 -1.890625 C 2.46875 -1.921875 2.472656 -2.007812 2.484375 -2.15625 C 2.484375 -2.132812 2.472656 -2.101562 2.453125 -2.0625 C 2.441406 -2.03125 2.429688 -2 2.421875 -1.96875 C 2.421875 -1.9375 2.414062 -1.910156 2.40625 -1.890625 L 1.71875 0 L 1.4375 0 L 0.734375 -1.890625 C 0.722656 -1.910156 0.710938 -1.9375 0.703125 -1.96875 C 0.691406 -2 0.679688 -2.03125 0.671875 -2.0625 C 0.660156 -2.101562 0.65625 -2.132812 0.65625 -2.15625 C 0.65625 -2.132812 0.65625 -2.09375 0.65625 -2.03125 C 0.664062 -1.96875 0.671875 -1.921875 0.671875 -1.890625 L 0.671875 0 L 0.25 0 L 0.25 -2.546875 C 0.25 -2.546875 0.242188 -2.5625 0.234375 -2.59375 C 0.234375 -2.632812 0.226562 -2.671875 0.21875 -2.703125 C 0.207031 -2.742188 0.203125 -2.769531 0.203125 -2.78125 L 0.9375 -2.78125 L 1.515625 -1.1875 C 1.546875 -1.113281 1.582031 -0.957031 1.625 -0.71875 C 1.632812 -0.738281 1.648438 -0.800781 1.671875 -0.90625 C 1.691406 -1.019531 1.710938 -1.109375 1.734375 -1.171875 L 2.3125 -2.78125 L 2.984375 -2.78125 Z M 2.984375 0 "/></g></g></g><g fill="#183e9f" fill-opacity="1"><g transform="translate(44.633158, 19.991512)"><g><path d="M 2.390625 0 L 1.828125 0 L 1.546875 -0.796875 L 0.734375 -0.796875 L 0.453125 0 L 0 0 L 0.984375 -2.78125 L 1.40625 -2.78125 Z M 1.421875 -1.171875 C 1.304688 -1.546875 1.210938 -1.863281 1.140625 -2.125 C 1.054688 -1.800781 0.960938 -1.484375 0.859375 -1.171875 Z M 1.421875 -1.171875 "/></g></g></g><g fill="#183e9f" fill-opacity="1"><g transform="translate(47.031731, 19.991512)"><g><path d="M 1.890625 -0.8125 C 1.890625 -0.539062 1.789062 -0.328125 1.59375 -0.171875 C 1.40625 -0.0234375 1.175781 0.046875 0.90625 0.046875 C 0.5625 0.046875 0.265625 -0.0234375 0.015625 -0.171875 L 0.1875 -0.59375 C 0.382812 -0.40625 0.609375 -0.3125 0.859375 -0.3125 C 0.984375 -0.3125 1.09375 -0.347656 1.1875 -0.421875 C 1.28125 -0.492188 1.328125 -0.59375 1.328125 -0.71875 C 1.328125 -0.8125 1.296875 -0.894531 1.234375 -0.96875 C 1.171875 -1.039062 1.09375 -1.09375 1 -1.125 C 0.914062 -1.164062 0.820312 -1.210938 0.71875 -1.265625 C 0.613281 -1.328125 0.515625 -1.382812 0.421875 -1.4375 C 0.328125 -1.488281 0.25 -1.566406 0.1875 -1.671875 C 0.132812 -1.773438 0.109375 -1.894531 0.109375 -2.03125 C 0.109375 -2.289062 0.195312 -2.488281 0.375 -2.625 C 0.5625 -2.757812 0.800781 -2.828125 1.09375 -2.828125 C 1.207031 -2.828125 1.335938 -2.800781 1.484375 -2.75 C 1.640625 -2.707031 1.757812 -2.65625 1.84375 -2.59375 L 1.578125 -2.265625 C 1.429688 -2.390625 1.253906 -2.453125 1.046875 -2.453125 C 0.941406 -2.453125 0.847656 -2.425781 0.765625 -2.375 C 0.691406 -2.320312 0.65625 -2.242188 0.65625 -2.140625 C 0.65625 -2.054688 0.6875 -1.976562 0.75 -1.90625 C 0.8125 -1.84375 0.882812 -1.789062 0.96875 -1.75 C 1.0625 -1.707031 1.160156 -1.65625 1.265625 -1.59375 C 1.378906 -1.539062 1.476562 -1.484375 1.5625 -1.421875 C 1.65625 -1.367188 1.734375 -1.289062 1.796875 -1.1875 C 1.859375 -1.082031 1.890625 -0.957031 1.890625 -0.8125 Z M 1.890625 -0.8125 "/></g></g></g><g fill="#183e9f" fill-opacity="1"><g transform="translate(48.993162, 19.991512)"><g/></g></g><g fill="#183e9f" fill-opacity="1"><g transform="translate(49.867443, 19.991512)"><g><path d="M 2.34375 0 L 1.75 0 L 0.984375 -1.234375 L 0.765625 -1.234375 L 0.765625 0 L 0.25 0 L 0.25 -2.546875 C 0.25 -2.554688 0.238281 -2.59375 0.21875 -2.65625 C 0.207031 -2.726562 0.195312 -2.769531 0.1875 -2.78125 L 1.140625 -2.78125 C 1.421875 -2.78125 1.644531 -2.71875 1.8125 -2.59375 C 1.988281 -2.476562 2.078125 -2.285156 2.078125 -2.015625 C 2.078125 -1.859375 2.019531 -1.710938 1.90625 -1.578125 C 1.789062 -1.441406 1.648438 -1.351562 1.484375 -1.3125 Z M 1.53125 -2.03125 C 1.53125 -2.144531 1.488281 -2.234375 1.40625 -2.296875 C 1.320312 -2.367188 1.21875 -2.40625 1.09375 -2.40625 L 0.765625 -2.40625 L 0.765625 -1.609375 L 1.015625 -1.609375 C 1.359375 -1.609375 1.53125 -1.75 1.53125 -2.03125 Z M 1.53125 -2.03125 "/></g></g></g><g fill="#183e9f" fill-opacity="1"><g transform="translate(52.113966, 19.991512)"><g><path d="M 2.71875 -1.390625 C 2.71875 -0.972656 2.597656 -0.628906 2.359375 -0.359375 C 2.117188 -0.0859375 1.796875 0.046875 1.390625 0.046875 C 0.972656 0.046875 0.648438 -0.0859375 0.421875 -0.359375 C 0.191406 -0.628906 0.078125 -0.972656 0.078125 -1.390625 C 0.078125 -1.816406 0.191406 -2.160156 0.421875 -2.421875 C 0.648438 -2.691406 0.972656 -2.828125 1.390625 -2.828125 C 1.816406 -2.828125 2.144531 -2.691406 2.375 -2.421875 C 2.601562 -2.160156 2.71875 -1.816406 2.71875 -1.390625 Z M 2.171875 -1.375 C 2.171875 -1.507812 2.15625 -1.632812 2.125 -1.75 C 2.101562 -1.875 2.0625 -1.988281 2 -2.09375 C 1.945312 -2.207031 1.867188 -2.296875 1.765625 -2.359375 C 1.660156 -2.421875 1.535156 -2.453125 1.390625 -2.453125 C 1.253906 -2.453125 1.132812 -2.421875 1.03125 -2.359375 C 0.925781 -2.304688 0.84375 -2.222656 0.78125 -2.109375 C 0.726562 -2.003906 0.6875 -1.894531 0.65625 -1.78125 C 0.632812 -1.664062 0.625 -1.539062 0.625 -1.40625 C 0.625 -1.269531 0.632812 -1.140625 0.65625 -1.015625 C 0.6875 -0.898438 0.726562 -0.785156 0.78125 -0.671875 C 0.84375 -0.566406 0.925781 -0.476562 1.03125 -0.40625 C 1.132812 -0.34375 1.257812 -0.3125 1.40625 -0.3125 C 1.539062 -0.3125 1.660156 -0.34375 1.765625 -0.40625 C 1.867188 -0.46875 1.945312 -0.550781 2 -0.65625 C 2.0625 -0.757812 2.101562 -0.867188 2.125 -0.984375 C 2.15625 -1.109375 2.171875 -1.238281 2.171875 -1.375 Z M 2.171875 -1.375 "/></g></g></g><g fill="#183e9f" fill-opacity="1"><g transform="translate(54.915468, 19.991512)"><g><path d="M 3.453125 -2.78125 L 2.671875 0 L 2.203125 0 C 2.179688 -0.09375 2.132812 -0.253906 2.0625 -0.484375 C 2 -0.710938 1.941406 -0.910156 1.890625 -1.078125 C 1.847656 -1.253906 1.8125 -1.421875 1.78125 -1.578125 C 1.738281 -1.722656 1.710938 -1.863281 1.703125 -2 C 1.671875 -1.769531 1.628906 -1.5625 1.578125 -1.375 L 1.203125 0 L 0.703125 0 L -0.046875 -2.78125 L 0.46875 -2.78125 C 0.738281 -1.820312 0.882812 -1.285156 0.90625 -1.171875 C 0.9375 -1.035156 0.96875 -0.875 1 -0.6875 C 1.019531 -0.851562 1.0625 -1.0625 1.125 -1.3125 L 1.53125 -2.78125 L 1.96875 -2.78125 C 2 -2.664062 2.046875 -2.492188 2.109375 -2.265625 C 2.171875 -2.046875 2.226562 -1.847656 2.28125 -1.671875 C 2.332031 -1.492188 2.378906 -1.328125 2.421875 -1.171875 C 2.441406 -1.046875 2.46875 -0.882812 2.5 -0.6875 C 2.53125 -0.90625 2.570312 -1.113281 2.625 -1.3125 L 3.03125 -2.78125 Z M 3.453125 -2.78125 "/></g></g></g><g fill="#183e9f" fill-opacity="1"><g transform="translate(58.313763, 19.991512)"><g><path d="M 2.71875 -1.390625 C 2.71875 -0.972656 2.597656 -0.628906 2.359375 -0.359375 C 2.117188 -0.0859375 1.796875 0.046875 1.390625 0.046875 C 0.972656 0.046875 0.648438 -0.0859375 0.421875 -0.359375 C 0.191406 -0.628906 0.078125 -0.972656 0.078125 -1.390625 C 0.078125 -1.816406 0.191406 -2.160156 0.421875 -2.421875 C 0.648438 -2.691406 0.972656 -2.828125 1.390625 -2.828125 C 1.816406 -2.828125 2.144531 -2.691406 2.375 -2.421875 C 2.601562 -2.160156 2.71875 -1.816406 2.71875 -1.390625 Z M 2.171875 -1.375 C 2.171875 -1.507812 2.15625 -1.632812 2.125 -1.75 C 2.101562 -1.875 2.0625 -1.988281 2 -2.09375 C 1.945312 -2.207031 1.867188 -2.296875 1.765625 -2.359375 C 1.660156 -2.421875 1.535156 -2.453125 1.390625 -2.453125 C 1.253906 -2.453125 1.132812 -2.421875 1.03125 -2.359375 C 0.925781 -2.304688 0.84375 -2.222656 0.78125 -2.109375 C 0.726562 -2.003906 0.6875 -1.894531 0.65625 -1.78125 C 0.632812 -1.664062 0.625 -1.539062 0.625 -1.40625 C 0.625 -1.269531 0.632812 -1.140625 0.65625 -1.015625 C 0.6875 -0.898438 0.726562 -0.785156 0.78125 -0.671875 C 0.84375 -0.566406 0.925781 -0.476562 1.03125 -0.40625 C 1.132812 -0.34375 1.257812 -0.3125 1.40625 -0.3125 C 1.539062 -0.3125 1.660156 -0.34375 1.765625 -0.40625 C 1.867188 -0.46875 1.945312 -0.550781 2 -0.65625 C 2.0625 -0.757812 2.101562 -0.867188 2.125 -0.984375 C 2.15625 -1.109375 2.171875 -1.238281 2.171875 -1.375 Z M 2.171875 -1.375 "/></g></g></g><g fill="#183e9f" fill-opacity="1"><g transform="translate(61.115265, 19.991512)"><g><path d="M 1.890625 -0.8125 C 1.890625 -0.539062 1.789062 -0.328125 1.59375 -0.171875 C 1.40625 -0.0234375 1.175781 0.046875 0.90625 0.046875 C 0.5625 0.046875 0.265625 -0.0234375 0.015625 -0.171875 L 0.1875 -0.59375 C 0.382812 -0.40625 0.609375 -0.3125 0.859375 -0.3125 C 0.984375 -0.3125 1.09375 -0.347656 1.1875 -0.421875 C 1.28125 -0.492188 1.328125 -0.59375 1.328125 -0.71875 C 1.328125 -0.8125 1.296875 -0.894531 1.234375 -0.96875 C 1.171875 -1.039062 1.09375 -1.09375 1 -1.125 C 0.914062 -1.164062 0.820312 -1.210938 0.71875 -1.265625 C 0.613281 -1.328125 0.515625 -1.382812 0.421875 -1.4375 C 0.328125 -1.488281 0.25 -1.566406 0.1875 -1.671875 C 0.132812 -1.773438 0.109375 -1.894531 0.109375 -2.03125 C 0.109375 -2.289062 0.195312 -2.488281 0.375 -2.625 C 0.5625 -2.757812 0.800781 -2.828125 1.09375 -2.828125 C 1.207031 -2.828125 1.335938 -2.800781 1.484375 -2.75 C 1.640625 -2.707031 1.757812 -2.65625 1.84375 -2.59375 L 1.578125 -2.265625 C 1.429688 -2.390625 1.253906 -2.453125 1.046875 -2.453125 C 0.941406 -2.453125 0.847656 -2.425781 0.765625 -2.375 C 0.691406 -2.320312 0.65625 -2.242188 0.65625 -2.140625 C 0.65625 -2.054688 0.6875 -1.976562 0.75 -1.90625 C 0.8125 -1.84375 0.882812 -1.789062 0.96875 -1.75 C 1.0625 -1.707031 1.160156 -1.65625 1.265625 -1.59375 C 1.378906 -1.539062 1.476562 -1.484375 1.5625 -1.421875 C 1.65625 -1.367188 1.734375 -1.289062 1.796875 -1.1875 C 1.859375 -1.082031 1.890625 -0.957031 1.890625 -0.8125 Z M 1.890625 -0.8125 "/></g></g></g><g fill="#183e9f" fill-opacity="1"><g transform="translate(63.076696, 19.991512)"><g><path d="M 2.390625 0 L 1.828125 0 L 1.546875 -0.796875 L 0.734375 -0.796875 L 0.453125 0 L 0 0 L 0.984375 -2.78125 L 1.40625 -2.78125 Z M 1.421875 -1.171875 C 1.304688 -1.546875 1.210938 -1.863281 1.140625 -2.125 C 1.054688 -1.800781 0.960938 -1.484375 0.859375 -1.171875 Z M 1.421875 -1.171875 "/></g></g></g><g fill="#183e9f" fill-opacity="1"><g transform="translate(65.47527, 19.991512)"><g><path d="M 2.34375 0 L 1.75 0 L 0.984375 -1.234375 L 0.765625 -1.234375 L 0.765625 0 L 0.25 0 L 0.25 -2.546875 C 0.25 -2.554688 0.238281 -2.59375 0.21875 -2.65625 C 0.207031 -2.726562 0.195312 -2.769531 0.1875 -2.78125 L 1.140625 -2.78125 C 1.421875 -2.78125 1.644531 -2.71875 1.8125 -2.59375 C 1.988281 -2.476562 2.078125 -2.285156 2.078125 -2.015625 C 2.078125 -1.859375 2.019531 -1.710938 1.90625 -1.578125 C 1.789062 -1.441406 1.648438 -1.351562 1.484375 -1.3125 Z M 1.53125 -2.03125 C 1.53125 -2.144531 1.488281 -2.234375 1.40625 -2.296875 C 1.320312 -2.367188 1.21875 -2.40625 1.09375 -2.40625 L 0.765625 -2.40625 L 0.765625 -1.609375 L 1.015625 -1.609375 C 1.359375 -1.609375 1.53125 -1.75 1.53125 -2.03125 Z M 1.53125 -2.03125 "/></g></g></g><g fill="#183e9f" fill-opacity="1"><g transform="translate(67.721793, 19.991512)"><g><path d="M 0.78125 0 L 0.25 0 L 0.25 -2.546875 C 0.25 -2.546875 0.242188 -2.5625 0.234375 -2.59375 C 0.222656 -2.632812 0.210938 -2.671875 0.203125 -2.703125 C 0.203125 -2.742188 0.203125 -2.769531 0.203125 -2.78125 L 0.78125 -2.78125 Z M 0.78125 0 "/></g></g></g><path fill="#1b9ce4" d="M 8.238281 13.445312 C 8.238281 9.785156 11.207031 6.816406 14.867188 6.816406 C 16.539062 6.816406 18.066406 7.4375 19.234375 8.460938 C 17.964844 6.496094 15.753906 5.191406 13.238281 5.191406 C 9.304688 5.191406 6.113281 8.382812 6.113281 12.320312 C 6.113281 15.738281 8.519531 18.597656 11.734375 19.289062 C 9.652344 18.171875 8.238281 15.972656 8.238281 13.445312 " fill-opacity="1" fill-rule="nonzero"/><g clip-path="url(#324a418052)"><path fill="#183e9f" d="M 21.710938 3.460938 C 21.582031 3.410156 21.523438 3.546875 21.5 3.730469 C 21.457031 4.089844 21.601562 4.445312 21.871094 4.683594 C 24.714844 7.171875 24.160156 13.273438 22.304688 12.910156 C 21.085938 12.671875 22.382812 9.046875 21.367188 8.921875 C 20.691406 8.839844 20.09375 10.519531 20.136719 12.734375 C 20.160156 14.003906 20.566406 15.050781 20.925781 15.957031 C 21.441406 17.273438 20.964844 18.777344 19.773438 19.539062 C 15.984375 21.957031 10.890625 21.511719 7.582031 18.199219 C 5.832031 16.449219 4.882812 14.203125 4.730469 11.914062 C 4 15.304688 4.953125 18.984375 7.597656 21.617188 C 10.925781 24.929688 16.242188 25.621094 20.308594 23.269531 C 24.171875 21.039062 25.789062 16.449219 26.015625 12.183594 C 26.308594 6.757812 23.195312 4.015625 21.710938 3.460938 Z M 21.179688 6.429688 C 22.65625 7.726562 23.214844 10 23.148438 11.828125 C 23.378906 11.261719 23.503906 10.429688 23.476562 9.539062 C 23.4375 8.351562 23.15625 7.238281 22.679688 6.335938 C 22.070312 5.746094 21.464844 5.371094 21.015625 5.203125 C 20.878906 5.152344 20.824219 5.296875 20.800781 5.484375 C 20.761719 5.84375 20.910156 6.191406 21.179688 6.429688 " fill-opacity="1" fill-rule="nonzero"/></g><g clip-path="url(#22744754bd)"><g clip-path="url(#336c7820d2)"><path fill="#183e9f" d="M 10.484375 10.417969 L 19.816406 10.417969 L 19.816406 18.613281 L 10.484375 18.613281 Z M 10.484375 10.417969 " fill-opacity="1" fill-rule="nonzero"/></g></g><g mask="url(#3afeff7731)"><g transform="matrix(1, 0, 0, 1, 11, 12)"><g clip-path="url(#3da4c24676)"><g clip-path="url(#569c59215b)"><g clip-path="url(#f6271a07ae)"><path fill="#54afe6" d="M 0.4375 0.09375 L 7.863281 0.09375 L 7.863281 6.613281 L 0.4375 6.613281 Z M 0.4375 0.09375 " fill-opacity="1" fill-rule="nonzero"/></g></g></g></g></g></svg>