<svg xmlns="http://www.w3.org/2000/svg" xmlns:xlink="http://www.w3.org/1999/xlink" width="110" zoomAndPan="magnify" viewBox="0 0 82.5 30.000001" height="40" preserveAspectRatio="xMidYMid meet" version="1.0"><defs><filter x="0%" y="0%" width="100%" height="100%" id="5efd450ac5"><feColorMatrix values="0 0 0 0 1 0 0 0 0 1 0 0 0 0 1 0 0 0 1 0" color-interpolation-filters="sRGB"/></filter><g/><clipPath id="07934e86a9"><path d="M 4 3.410156 L 26.296875 3.410156 L 26.296875 25 L 4 25 Z M 4 3.410156 " clip-rule="nonzero"/></clipPath><clipPath id="b46a88a611"><path d="M 10.484375 10.417969 L 19.835938 10.417969 L 19.835938 18.613281 L 10.484375 18.613281 Z M 10.484375 10.417969 " clip-rule="nonzero"/></clipPath><clipPath id="78d6274e63"><path d="M 10.484375 12.835938 C 10.484375 15.4375 15.152344 18.613281 15.152344 18.613281 C 15.152344 18.613281 19.804688 15.417969 19.824219 12.835938 C 19.824219 11.503906 18.738281 10.417969 17.40625 10.417969 C 16.382812 10.417969 15.5 11.074219 15.152344 11.976562 C 14.808594 11.074219 13.925781 10.417969 12.902344 10.417969 C 11.570312 10.417969 10.484375 11.503906 10.484375 12.835938 " clip-rule="nonzero"/></clipPath><mask id="57b8ce492f"><g filter="url(#5efd450ac5)"><rect x="-8.25" width="99" fill="#000000" y="-3" height="36.000001" fill-opacity="0.82"/></g></mask><clipPath id="996b966aae"><path d="M 0.4375 0.09375 L 7.878906 0.09375 L 7.878906 6.613281 L 0.4375 6.613281 Z M 0.4375 0.09375 " clip-rule="nonzero"/></clipPath><clipPath id="b369aaa4f3"><path d="M 0.4375 2.015625 C 0.4375 4.085938 4.152344 6.613281 4.152344 6.613281 C 4.152344 6.613281 7.855469 4.070312 7.871094 2.015625 C 7.871094 0.957031 7.007812 0.09375 5.949219 0.09375 C 5.132812 0.09375 4.429688 0.613281 4.152344 1.332031 C 3.878906 0.613281 3.175781 0.09375 2.359375 0.09375 C 1.300781 0.09375 0.4375 0.957031 0.4375 2.015625 " clip-rule="nonzero"/></clipPath><clipPath id="5de7716695"><rect x="0" width="8" y="0" height="7"/></clipPath></defs><g fill="#183172" fill-opacity="1"><g transform="translate(27.65726, 13.867019)"><g><path d="M 4.75 0 L 3.46875 0 L 1.625 -2.953125 L 1.625 0 L 0.53125 0 L 0.53125 -5.34375 C 0.53125 -5.34375 0.519531 -5.378906 0.5 -5.453125 C 0.476562 -5.523438 0.457031 -5.601562 0.4375 -5.6875 C 0.414062 -5.769531 0.40625 -5.816406 0.40625 -5.828125 L 1.625 -5.828125 L 1.625 -3.21875 L 3.5625 -5.828125 L 4.578125 -5.828125 L 2.6875 -3.28125 Z M 4.75 0 "/></g></g></g><g fill="#183172" fill-opacity="1"><g transform="translate(32.29798, 13.867019)"><g><path d="M 1.625 0 L 0.53125 0 L 0.53125 -5.34375 C 0.53125 -5.34375 0.519531 -5.378906 0.5 -5.453125 C 0.476562 -5.523438 0.457031 -5.601562 0.4375 -5.6875 C 0.414062 -5.769531 0.40625 -5.816406 0.40625 -5.828125 L 1.625 -5.828125 Z M 1.625 0 "/></g></g></g><g fill="#183172" fill-opacity="1"><g transform="translate(34.427627, 13.867019)"><g><path d="M 5 0 L 3.828125 0 L 3.25 -1.671875 L 1.53125 -1.671875 L 0.9375 0 L 0.015625 0 L 2.078125 -5.828125 L 2.9375 -5.828125 Z M 2.984375 -2.453125 C 2.734375 -3.234375 2.535156 -3.894531 2.390625 -4.4375 C 2.203125 -3.769531 2.007812 -3.109375 1.8125 -2.453125 Z M 2.984375 -2.453125 "/></g></g></g><g fill="#183172" fill-opacity="1"><g transform="translate(39.44183, 13.867019)"><g><path d="M 4.875 -0.5 C 4.53125 -0.289062 4.210938 -0.140625 3.921875 -0.046875 C 3.640625 0.046875 3.3125 0.09375 2.9375 0.09375 C 2.039062 0.09375 1.351562 -0.1875 0.875 -0.75 C 0.394531 -1.3125 0.15625 -2.046875 0.15625 -2.953125 C 0.15625 -3.816406 0.40625 -4.53125 0.90625 -5.09375 C 1.414062 -5.65625 2.097656 -5.9375 2.953125 -5.9375 C 3.273438 -5.9375 3.617188 -5.882812 3.984375 -5.78125 C 4.347656 -5.6875 4.628906 -5.550781 4.828125 -5.375 L 4.265625 -4.640625 C 4.117188 -4.796875 3.925781 -4.921875 3.6875 -5.015625 C 3.445312 -5.109375 3.210938 -5.15625 2.984375 -5.15625 C 2.597656 -5.15625 2.273438 -5.046875 2.015625 -4.828125 C 1.753906 -4.609375 1.578125 -4.34375 1.484375 -4.03125 C 1.390625 -3.71875 1.34375 -3.363281 1.34375 -2.96875 C 1.34375 -2.71875 1.375 -2.460938 1.4375 -2.203125 C 1.507812 -1.941406 1.609375 -1.691406 1.734375 -1.453125 C 1.859375 -1.210938 2.03125 -1.019531 2.25 -0.875 C 2.476562 -0.726562 2.726562 -0.65625 3 -0.65625 C 3.5 -0.65625 3.953125 -0.851562 4.359375 -1.25 Z M 4.875 -0.5 "/></g></g></g><g fill="#183172" fill-opacity="1"><g transform="translate(44.40041, 13.867019)"><g><path d="M 5 0 L 3.828125 0 L 3.25 -1.671875 L 1.53125 -1.671875 L 0.9375 0 L 0.015625 0 L 2.078125 -5.828125 L 2.9375 -5.828125 Z M 2.984375 -2.453125 C 2.734375 -3.234375 2.535156 -3.894531 2.390625 -4.4375 C 2.203125 -3.769531 2.007812 -3.109375 1.8125 -2.453125 Z M 2.984375 -2.453125 "/></g></g></g><g fill="#183172" fill-opacity="1"><g transform="translate(49.414613, 13.867019)"><g><path d="M 4.90625 0 L 3.671875 0 L 2.046875 -2.59375 L 1.609375 -2.59375 L 1.609375 0 L 0.53125 0 L 0.53125 -5.34375 C 0.53125 -5.351562 0.507812 -5.429688 0.46875 -5.578125 C 0.425781 -5.722656 0.40625 -5.804688 0.40625 -5.828125 L 2.40625 -5.828125 C 2.988281 -5.828125 3.457031 -5.703125 3.8125 -5.453125 C 4.175781 -5.203125 4.359375 -4.796875 4.359375 -4.234375 C 4.359375 -3.898438 4.234375 -3.585938 3.984375 -3.296875 C 3.742188 -3.015625 3.457031 -2.835938 3.125 -2.765625 Z M 3.21875 -4.234375 C 3.21875 -4.484375 3.128906 -4.675781 2.953125 -4.8125 C 2.773438 -4.957031 2.554688 -5.03125 2.296875 -5.03125 L 1.609375 -5.03125 L 1.609375 -3.375 L 2.125 -3.375 C 2.851562 -3.375 3.21875 -3.660156 3.21875 -4.234375 Z M 3.21875 -4.234375 "/></g></g></g><g fill="#183172" fill-opacity="1"><g transform="translate(54.110959, 13.867019)"><g><path d="M 4.078125 0 L 0.53125 0 L 0.53125 -5.34375 L 0.40625 -5.828125 L 4.078125 -5.828125 L 4.078125 -5.03125 L 1.625 -5.03125 L 1.625 -3.390625 L 3.5 -3.390625 L 3.5 -2.59375 L 1.625 -2.59375 L 1.625 -0.78125 L 4.078125 -0.78125 Z M 4.078125 0 "/></g></g></g><g fill="#183172" fill-opacity="1"><g transform="translate(58.473554, 13.867019)"><g><path d="M 5.171875 0 L 4.078125 0 L 4.078125 -2.59375 L 1.625 -2.59375 L 1.625 0 L 0.53125 0 L 0.53125 -5.34375 C 0.53125 -5.34375 0.519531 -5.378906 0.5 -5.453125 C 0.488281 -5.523438 0.472656 -5.601562 0.453125 -5.6875 C 0.429688 -5.769531 0.421875 -5.816406 0.421875 -5.828125 L 1.625 -5.828125 L 1.625 -3.390625 L 4.078125 -3.390625 L 4.078125 -5.828125 L 5.171875 -5.828125 Z M 5.171875 0 "/></g></g></g><g fill="#183172" fill-opacity="1"><g transform="translate(64.147313, 13.867019)"><g><path d="M 5.125 -2.21875 C 5.125 -1.425781 4.914062 -0.84375 4.5 -0.46875 C 4.082031 -0.09375 3.523438 0.09375 2.828125 0.09375 C 2.085938 0.09375 1.519531 -0.101562 1.125 -0.5 C 0.738281 -0.894531 0.546875 -1.46875 0.546875 -2.21875 L 0.546875 -5.34375 L 0.40625 -5.828125 L 1.65625 -5.828125 L 1.65625 -1.953125 C 1.65625 -1.566406 1.769531 -1.253906 2 -1.015625 C 2.238281 -0.785156 2.550781 -0.671875 2.9375 -0.671875 C 3.332031 -0.671875 3.644531 -0.785156 3.875 -1.015625 C 4.101562 -1.242188 4.21875 -1.554688 4.21875 -1.953125 L 4.21875 -5.828125 L 5.125 -5.828125 Z M 5.125 -2.21875 "/></g></g></g><g fill="#183172" fill-opacity="1"><g transform="translate(69.765446, 13.867019)"><g><path d="M 4.65625 -1.609375 C 4.65625 -1.234375 4.550781 -0.921875 4.34375 -0.671875 C 4.132812 -0.421875 3.878906 -0.242188 3.578125 -0.140625 C 3.273438 -0.046875 2.9375 0 2.5625 0 L 0.53125 0 L 0.53125 -5.34375 C 0.53125 -5.34375 0.519531 -5.378906 0.5 -5.453125 C 0.488281 -5.523438 0.472656 -5.601562 0.453125 -5.6875 C 0.429688 -5.769531 0.421875 -5.816406 0.421875 -5.828125 L 2.484375 -5.828125 C 2.734375 -5.828125 2.960938 -5.804688 3.171875 -5.765625 C 3.378906 -5.722656 3.578125 -5.65625 3.765625 -5.5625 C 3.960938 -5.46875 4.113281 -5.320312 4.21875 -5.125 C 4.332031 -4.9375 4.390625 -4.71875 4.390625 -4.46875 C 4.390625 -4.125 4.273438 -3.832031 4.046875 -3.59375 C 3.816406 -3.363281 3.535156 -3.222656 3.203125 -3.171875 C 3.609375 -3.097656 3.953125 -2.921875 4.234375 -2.640625 C 4.515625 -2.359375 4.65625 -2.015625 4.65625 -1.609375 Z M 3.234375 -4.3125 C 3.234375 -4.550781 3.160156 -4.726562 3.015625 -4.84375 C 2.867188 -4.96875 2.671875 -5.03125 2.421875 -5.03125 L 1.625 -5.03125 L 1.625 -3.546875 L 2.453125 -3.546875 C 2.679688 -3.546875 2.867188 -3.613281 3.015625 -3.75 C 3.160156 -3.894531 3.234375 -4.082031 3.234375 -4.3125 Z M 3.5 -1.734375 C 3.5 -2.078125 3.378906 -2.332031 3.140625 -2.5 C 2.898438 -2.675781 2.601562 -2.765625 2.25 -2.765625 L 1.625 -2.765625 L 1.625 -0.78125 L 2.5 -0.78125 C 2.800781 -0.78125 3.039062 -0.863281 3.21875 -1.03125 C 3.40625 -1.207031 3.5 -1.441406 3.5 -1.734375 Z M 3.5 -1.734375 "/></g></g></g><g fill="#183e9f" fill-opacity="1"><g transform="translate(28.134233, 18.863035)"><g><path d="M 1.875 -1.75 C 1.875 -1.5 1.785156 -1.3125 1.609375 -1.1875 C 1.429688 -1.0625 1.21875 -1 0.96875 -1 L 0.6875 -1 L 0.6875 0 L 0.21875 0 L 0.21875 -2.28125 C 0.21875 -2.289062 0.207031 -2.328125 0.1875 -2.390625 C 0.175781 -2.453125 0.171875 -2.488281 0.171875 -2.5 L 0.96875 -2.5 C 1.238281 -2.5 1.457031 -2.4375 1.625 -2.3125 C 1.789062 -2.195312 1.875 -2.007812 1.875 -1.75 Z M 1.375 -1.75 C 1.375 -1.875 1.335938 -1.972656 1.265625 -2.046875 C 1.203125 -2.117188 1.109375 -2.15625 0.984375 -2.15625 L 0.6875 -2.15625 L 0.6875 -1.328125 L 0.984375 -1.328125 C 1.109375 -1.328125 1.203125 -1.363281 1.265625 -1.4375 C 1.335938 -1.519531 1.375 -1.625 1.375 -1.75 Z M 1.375 -1.75 "/></g></g></g><g fill="#183e9f" fill-opacity="1"><g transform="translate(30.092902, 18.863035)"><g><path d="M 2.1875 -0.953125 C 2.1875 -0.609375 2.097656 -0.359375 1.921875 -0.203125 C 1.742188 -0.046875 1.507812 0.03125 1.21875 0.03125 C 0.894531 0.03125 0.648438 -0.0507812 0.484375 -0.21875 C 0.316406 -0.382812 0.234375 -0.628906 0.234375 -0.953125 L 0.234375 -2.28125 L 0.171875 -2.5 L 0.71875 -2.5 L 0.71875 -0.828125 C 0.71875 -0.660156 0.765625 -0.523438 0.859375 -0.421875 C 0.960938 -0.328125 1.097656 -0.28125 1.265625 -0.28125 C 1.429688 -0.28125 1.5625 -0.328125 1.65625 -0.421875 C 1.757812 -0.523438 1.8125 -0.660156 1.8125 -0.828125 L 1.8125 -2.5 L 2.1875 -2.5 Z M 2.1875 -0.953125 "/></g></g></g><g fill="#183e9f" fill-opacity="1"><g transform="translate(32.501214, 18.863035)"><g><path d="M 1.6875 -0.734375 C 1.6875 -0.492188 1.601562 -0.300781 1.4375 -0.15625 C 1.269531 -0.0195312 1.0625 0.046875 0.8125 0.046875 C 0.5 0.046875 0.234375 -0.0195312 0.015625 -0.15625 L 0.171875 -0.53125 C 0.347656 -0.363281 0.546875 -0.28125 0.765625 -0.28125 C 0.878906 -0.28125 0.976562 -0.3125 1.0625 -0.375 C 1.144531 -0.445312 1.1875 -0.535156 1.1875 -0.640625 C 1.1875 -0.722656 1.160156 -0.796875 1.109375 -0.859375 C 1.054688 -0.921875 0.988281 -0.96875 0.90625 -1 C 0.820312 -1.039062 0.734375 -1.085938 0.640625 -1.140625 C 0.546875 -1.191406 0.457031 -1.238281 0.375 -1.28125 C 0.300781 -1.332031 0.234375 -1.40625 0.171875 -1.5 C 0.117188 -1.59375 0.09375 -1.703125 0.09375 -1.828125 C 0.09375 -2.054688 0.171875 -2.226562 0.328125 -2.34375 C 0.492188 -2.46875 0.710938 -2.53125 0.984375 -2.53125 C 1.085938 -2.53125 1.207031 -2.507812 1.34375 -2.46875 C 1.476562 -2.425781 1.582031 -2.378906 1.65625 -2.328125 L 1.40625 -2.03125 C 1.28125 -2.144531 1.125 -2.203125 0.9375 -2.203125 C 0.84375 -2.203125 0.757812 -2.175781 0.6875 -2.125 C 0.625 -2.082031 0.59375 -2.015625 0.59375 -1.921875 C 0.59375 -1.835938 0.617188 -1.765625 0.671875 -1.703125 C 0.722656 -1.648438 0.789062 -1.601562 0.875 -1.5625 C 0.957031 -1.53125 1.046875 -1.488281 1.140625 -1.4375 C 1.234375 -1.382812 1.320312 -1.332031 1.40625 -1.28125 C 1.488281 -1.226562 1.554688 -1.15625 1.609375 -1.0625 C 1.660156 -0.96875 1.6875 -0.859375 1.6875 -0.734375 Z M 1.6875 -0.734375 "/></g></g></g><g fill="#183e9f" fill-opacity="1"><g transform="translate(34.258908, 18.863035)"><g><path d="M 2.03125 0 L 1.484375 0 L 0.6875 -1.265625 L 0.6875 0 L 0.21875 0 L 0.21875 -2.28125 C 0.21875 -2.28125 0.210938 -2.296875 0.203125 -2.328125 C 0.203125 -2.367188 0.195312 -2.40625 0.1875 -2.4375 C 0.175781 -2.46875 0.171875 -2.488281 0.171875 -2.5 L 0.6875 -2.5 L 0.6875 -1.375 L 1.53125 -2.5 L 1.96875 -2.5 L 1.15625 -1.40625 Z M 2.03125 0 "/></g></g></g><g fill="#183e9f" fill-opacity="1"><g transform="translate(36.248236, 18.863035)"><g><path d="M 1.75 0 L 0.234375 0 L 0.234375 -2.28125 L 0.171875 -2.5 L 1.75 -2.5 L 1.75 -2.15625 L 0.6875 -2.15625 L 0.6875 -1.453125 L 1.5 -1.453125 L 1.5 -1.109375 L 0.6875 -1.109375 L 0.6875 -0.34375 L 1.75 -0.34375 Z M 1.75 0 "/></g></g></g><g fill="#183e9f" fill-opacity="1"><g transform="translate(38.118341, 18.863035)"><g><path d="M 1.6875 -0.734375 C 1.6875 -0.492188 1.601562 -0.300781 1.4375 -0.15625 C 1.269531 -0.0195312 1.0625 0.046875 0.8125 0.046875 C 0.5 0.046875 0.234375 -0.0195312 0.015625 -0.15625 L 0.171875 -0.53125 C 0.347656 -0.363281 0.546875 -0.28125 0.765625 -0.28125 C 0.878906 -0.28125 0.976562 -0.3125 1.0625 -0.375 C 1.144531 -0.445312 1.1875 -0.535156 1.1875 -0.640625 C 1.1875 -0.722656 1.160156 -0.796875 1.109375 -0.859375 C 1.054688 -0.921875 0.988281 -0.96875 0.90625 -1 C 0.820312 -1.039062 0.734375 -1.085938 0.640625 -1.140625 C 0.546875 -1.191406 0.457031 -1.238281 0.375 -1.28125 C 0.300781 -1.332031 0.234375 -1.40625 0.171875 -1.5 C 0.117188 -1.59375 0.09375 -1.703125 0.09375 -1.828125 C 0.09375 -2.054688 0.171875 -2.226562 0.328125 -2.34375 C 0.492188 -2.46875 0.710938 -2.53125 0.984375 -2.53125 C 1.085938 -2.53125 1.207031 -2.507812 1.34375 -2.46875 C 1.476562 -2.425781 1.582031 -2.378906 1.65625 -2.328125 L 1.40625 -2.03125 C 1.28125 -2.144531 1.125 -2.203125 0.9375 -2.203125 C 0.84375 -2.203125 0.757812 -2.175781 0.6875 -2.125 C 0.625 -2.082031 0.59375 -2.015625 0.59375 -1.921875 C 0.59375 -1.835938 0.617188 -1.765625 0.671875 -1.703125 C 0.722656 -1.648438 0.789062 -1.601562 0.875 -1.5625 C 0.957031 -1.53125 1.046875 -1.488281 1.140625 -1.4375 C 1.234375 -1.382812 1.320312 -1.332031 1.40625 -1.28125 C 1.488281 -1.226562 1.554688 -1.15625 1.609375 -1.0625 C 1.660156 -0.96875 1.6875 -0.859375 1.6875 -0.734375 Z M 1.6875 -0.734375 "/></g></g></g><g fill="#183e9f" fill-opacity="1"><g transform="translate(39.876035, 18.863035)"><g><path d="M 2.671875 0 L 2.21875 0 L 2.21875 -1.6875 C 2.21875 -1.71875 2.222656 -1.800781 2.234375 -1.9375 C 2.222656 -1.914062 2.210938 -1.890625 2.203125 -1.859375 C 2.191406 -1.828125 2.179688 -1.796875 2.171875 -1.765625 C 2.171875 -1.742188 2.164062 -1.71875 2.15625 -1.6875 L 1.546875 0 L 1.296875 0 L 0.671875 -1.6875 C 0.660156 -1.71875 0.648438 -1.742188 0.640625 -1.765625 C 0.628906 -1.796875 0.617188 -1.828125 0.609375 -1.859375 C 0.597656 -1.890625 0.585938 -1.914062 0.578125 -1.9375 C 0.578125 -1.914062 0.578125 -1.875 0.578125 -1.8125 C 0.585938 -1.757812 0.59375 -1.71875 0.59375 -1.6875 L 0.59375 0 L 0.234375 0 L 0.234375 -2.28125 C 0.234375 -2.28125 0.226562 -2.296875 0.21875 -2.328125 C 0.207031 -2.367188 0.195312 -2.40625 0.1875 -2.4375 C 0.1875 -2.46875 0.1875 -2.488281 0.1875 -2.5 L 0.828125 -2.5 L 1.359375 -1.0625 C 1.390625 -0.988281 1.425781 -0.851562 1.46875 -0.65625 C 1.46875 -0.664062 1.476562 -0.71875 1.5 -0.8125 C 1.519531 -0.914062 1.539062 -0.992188 1.5625 -1.046875 L 2.078125 -2.5 L 2.671875 -2.5 Z M 2.671875 0 "/></g></g></g><g fill="#183e9f" fill-opacity="1"><g transform="translate(42.730583, 18.863035)"><g><path d="M 2.140625 0 L 1.640625 0 L 1.390625 -0.71875 L 0.65625 -0.71875 L 0.40625 0 L 0 0 L 0.890625 -2.5 L 1.265625 -2.5 Z M 1.28125 -1.046875 C 1.175781 -1.378906 1.085938 -1.664062 1.015625 -1.90625 C 0.941406 -1.613281 0.859375 -1.328125 0.765625 -1.046875 Z M 1.28125 -1.046875 "/></g></g></g><g fill="#183e9f" fill-opacity="1"><g transform="translate(44.880012, 18.863035)"><g><path d="M 1.6875 -0.734375 C 1.6875 -0.492188 1.601562 -0.300781 1.4375 -0.15625 C 1.269531 -0.0195312 1.0625 0.046875 0.8125 0.046875 C 0.5 0.046875 0.234375 -0.0195312 0.015625 -0.15625 L 0.171875 -0.53125 C 0.347656 -0.363281 0.546875 -0.28125 0.765625 -0.28125 C 0.878906 -0.28125 0.976562 -0.3125 1.0625 -0.375 C 1.144531 -0.445312 1.1875 -0.535156 1.1875 -0.640625 C 1.1875 -0.722656 1.160156 -0.796875 1.109375 -0.859375 C 1.054688 -0.921875 0.988281 -0.96875 0.90625 -1 C 0.820312 -1.039062 0.734375 -1.085938 0.640625 -1.140625 C 0.546875 -1.191406 0.457031 -1.238281 0.375 -1.28125 C 0.300781 -1.332031 0.234375 -1.40625 0.171875 -1.5 C 0.117188 -1.59375 0.09375 -1.703125 0.09375 -1.828125 C 0.09375 -2.054688 0.171875 -2.226562 0.328125 -2.34375 C 0.492188 -2.46875 0.710938 -2.53125 0.984375 -2.53125 C 1.085938 -2.53125 1.207031 -2.507812 1.34375 -2.46875 C 1.476562 -2.425781 1.582031 -2.378906 1.65625 -2.328125 L 1.40625 -2.03125 C 1.28125 -2.144531 1.125 -2.203125 0.9375 -2.203125 C 0.84375 -2.203125 0.757812 -2.175781 0.6875 -2.125 C 0.625 -2.082031 0.59375 -2.015625 0.59375 -1.921875 C 0.59375 -1.835938 0.617188 -1.765625 0.671875 -1.703125 C 0.722656 -1.648438 0.789062 -1.601562 0.875 -1.5625 C 0.957031 -1.53125 1.046875 -1.488281 1.140625 -1.4375 C 1.234375 -1.382812 1.320312 -1.332031 1.40625 -1.28125 C 1.488281 -1.226562 1.554688 -1.15625 1.609375 -1.0625 C 1.660156 -0.96875 1.6875 -0.859375 1.6875 -0.734375 Z M 1.6875 -0.734375 "/></g></g></g><g fill="#183e9f" fill-opacity="1"><g transform="translate(46.637706, 18.863035)"><g/></g></g><g fill="#183e9f" fill-opacity="1"><g transform="translate(47.421173, 18.863035)"><g><path d="M 2.109375 0 L 1.5625 0 L 0.875 -1.109375 L 0.6875 -1.109375 L 0.6875 0 L 0.21875 0 L 0.21875 -2.28125 C 0.21875 -2.289062 0.207031 -2.328125 0.1875 -2.390625 C 0.175781 -2.453125 0.171875 -2.488281 0.171875 -2.5 L 1.03125 -2.5 C 1.28125 -2.5 1.484375 -2.441406 1.640625 -2.328125 C 1.796875 -2.222656 1.875 -2.050781 1.875 -1.8125 C 1.875 -1.664062 1.816406 -1.53125 1.703125 -1.40625 C 1.597656 -1.289062 1.476562 -1.21875 1.34375 -1.1875 Z M 1.375 -1.8125 C 1.375 -1.914062 1.335938 -2 1.265625 -2.0625 C 1.191406 -2.125 1.097656 -2.15625 0.984375 -2.15625 L 0.6875 -2.15625 L 0.6875 -1.4375 L 0.90625 -1.4375 C 1.21875 -1.4375 1.375 -1.5625 1.375 -1.8125 Z M 1.375 -1.8125 "/></g></g></g><g fill="#183e9f" fill-opacity="1"><g transform="translate(49.434346, 18.863035)"><g><path d="M 2.453125 -1.25 C 2.453125 -0.875 2.34375 -0.566406 2.125 -0.328125 C 1.90625 -0.0859375 1.613281 0.03125 1.25 0.03125 C 0.875 0.03125 0.582031 -0.0859375 0.375 -0.328125 C 0.164062 -0.566406 0.0625 -0.875 0.0625 -1.25 C 0.0625 -1.625 0.164062 -1.929688 0.375 -2.171875 C 0.582031 -2.410156 0.875 -2.53125 1.25 -2.53125 C 1.625 -2.53125 1.914062 -2.410156 2.125 -2.171875 C 2.34375 -1.929688 2.453125 -1.625 2.453125 -1.25 Z M 1.9375 -1.234375 C 1.9375 -1.347656 1.925781 -1.457031 1.90625 -1.5625 C 1.882812 -1.675781 1.847656 -1.78125 1.796875 -1.875 C 1.742188 -1.976562 1.671875 -2.054688 1.578125 -2.109375 C 1.484375 -2.171875 1.375 -2.203125 1.25 -2.203125 C 1.125 -2.203125 1.015625 -2.175781 0.921875 -2.125 C 0.828125 -2.070312 0.753906 -1.992188 0.703125 -1.890625 C 0.660156 -1.796875 0.625 -1.695312 0.59375 -1.59375 C 0.570312 -1.488281 0.5625 -1.378906 0.5625 -1.265625 C 0.5625 -1.140625 0.570312 -1.023438 0.59375 -0.921875 C 0.625 -0.816406 0.660156 -0.710938 0.703125 -0.609375 C 0.753906 -0.515625 0.828125 -0.4375 0.921875 -0.375 C 1.015625 -0.3125 1.125 -0.28125 1.25 -0.28125 C 1.375 -0.28125 1.484375 -0.304688 1.578125 -0.359375 C 1.671875 -0.421875 1.742188 -0.5 1.796875 -0.59375 C 1.847656 -0.6875 1.882812 -0.785156 1.90625 -0.890625 C 1.925781 -0.992188 1.9375 -1.109375 1.9375 -1.234375 Z M 1.9375 -1.234375 "/></g></g></g><g fill="#183e9f" fill-opacity="1"><g transform="translate(51.944851, 18.863035)"><g><path d="M 3.09375 -2.5 L 2.40625 0 L 1.984375 0 C 1.953125 -0.0820312 1.90625 -0.222656 1.84375 -0.421875 C 1.789062 -0.628906 1.742188 -0.8125 1.703125 -0.96875 C 1.660156 -1.125 1.625 -1.269531 1.59375 -1.40625 C 1.5625 -1.539062 1.539062 -1.671875 1.53125 -1.796875 C 1.5 -1.585938 1.457031 -1.398438 1.40625 -1.234375 L 1.078125 0 L 0.640625 0 L -0.046875 -2.5 L 0.421875 -2.5 C 0.660156 -1.632812 0.789062 -1.148438 0.8125 -1.046875 C 0.84375 -0.929688 0.867188 -0.789062 0.890625 -0.625 C 0.910156 -0.769531 0.953125 -0.953125 1.015625 -1.171875 L 1.375 -2.5 L 1.765625 -2.5 C 1.796875 -2.394531 1.835938 -2.238281 1.890625 -2.03125 C 1.953125 -1.832031 2.003906 -1.65625 2.046875 -1.5 C 2.085938 -1.34375 2.128906 -1.191406 2.171875 -1.046875 C 2.191406 -0.929688 2.210938 -0.789062 2.234375 -0.625 C 2.265625 -0.8125 2.304688 -0.992188 2.359375 -1.171875 L 2.71875 -2.5 Z M 3.09375 -2.5 "/></g></g></g><g fill="#183e9f" fill-opacity="1"><g transform="translate(54.990158, 18.863035)"><g><path d="M 2.453125 -1.25 C 2.453125 -0.875 2.34375 -0.566406 2.125 -0.328125 C 1.90625 -0.0859375 1.613281 0.03125 1.25 0.03125 C 0.875 0.03125 0.582031 -0.0859375 0.375 -0.328125 C 0.164062 -0.566406 0.0625 -0.875 0.0625 -1.25 C 0.0625 -1.625 0.164062 -1.929688 0.375 -2.171875 C 0.582031 -2.410156 0.875 -2.53125 1.25 -2.53125 C 1.625 -2.53125 1.914062 -2.410156 2.125 -2.171875 C 2.34375 -1.929688 2.453125 -1.625 2.453125 -1.25 Z M 1.9375 -1.234375 C 1.9375 -1.347656 1.925781 -1.457031 1.90625 -1.5625 C 1.882812 -1.675781 1.847656 -1.78125 1.796875 -1.875 C 1.742188 -1.976562 1.671875 -2.054688 1.578125 -2.109375 C 1.484375 -2.171875 1.375 -2.203125 1.25 -2.203125 C 1.125 -2.203125 1.015625 -2.175781 0.921875 -2.125 C 0.828125 -2.070312 0.753906 -1.992188 0.703125 -1.890625 C 0.660156 -1.796875 0.625 -1.695312 0.59375 -1.59375 C 0.570312 -1.488281 0.5625 -1.378906 0.5625 -1.265625 C 0.5625 -1.140625 0.570312 -1.023438 0.59375 -0.921875 C 0.625 -0.816406 0.660156 -0.710938 0.703125 -0.609375 C 0.753906 -0.515625 0.828125 -0.4375 0.921875 -0.375 C 1.015625 -0.3125 1.125 -0.28125 1.25 -0.28125 C 1.375 -0.28125 1.484375 -0.304688 1.578125 -0.359375 C 1.671875 -0.421875 1.742188 -0.5 1.796875 -0.59375 C 1.847656 -0.6875 1.882812 -0.785156 1.90625 -0.890625 C 1.925781 -0.992188 1.9375 -1.109375 1.9375 -1.234375 Z M 1.9375 -1.234375 "/></g></g></g><g fill="#183e9f" fill-opacity="1"><g transform="translate(57.500663, 18.863035)"><g><path d="M 1.6875 -0.734375 C 1.6875 -0.492188 1.601562 -0.300781 1.4375 -0.15625 C 1.269531 -0.0195312 1.0625 0.046875 0.8125 0.046875 C 0.5 0.046875 0.234375 -0.0195312 0.015625 -0.15625 L 0.171875 -0.53125 C 0.347656 -0.363281 0.546875 -0.28125 0.765625 -0.28125 C 0.878906 -0.28125 0.976562 -0.3125 1.0625 -0.375 C 1.144531 -0.445312 1.1875 -0.535156 1.1875 -0.640625 C 1.1875 -0.722656 1.160156 -0.796875 1.109375 -0.859375 C 1.054688 -0.921875 0.988281 -0.96875 0.90625 -1 C 0.820312 -1.039062 0.734375 -1.085938 0.640625 -1.140625 C 0.546875 -1.191406 0.457031 -1.238281 0.375 -1.28125 C 0.300781 -1.332031 0.234375 -1.40625 0.171875 -1.5 C 0.117188 -1.59375 0.09375 -1.703125 0.09375 -1.828125 C 0.09375 -2.054688 0.171875 -2.226562 0.328125 -2.34375 C 0.492188 -2.46875 0.710938 -2.53125 0.984375 -2.53125 C 1.085938 -2.53125 1.207031 -2.507812 1.34375 -2.46875 C 1.476562 -2.425781 1.582031 -2.378906 1.65625 -2.328125 L 1.40625 -2.03125 C 1.28125 -2.144531 1.125 -2.203125 0.9375 -2.203125 C 0.84375 -2.203125 0.757812 -2.175781 0.6875 -2.125 C 0.625 -2.082031 0.59375 -2.015625 0.59375 -1.921875 C 0.59375 -1.835938 0.617188 -1.765625 0.671875 -1.703125 C 0.722656 -1.648438 0.789062 -1.601562 0.875 -1.5625 C 0.957031 -1.53125 1.046875 -1.488281 1.140625 -1.4375 C 1.234375 -1.382812 1.320312 -1.332031 1.40625 -1.28125 C 1.488281 -1.226562 1.554688 -1.15625 1.609375 -1.0625 C 1.660156 -0.96875 1.6875 -0.859375 1.6875 -0.734375 Z M 1.6875 -0.734375 "/></g></g></g><g fill="#183e9f" fill-opacity="1"><g transform="translate(59.258357, 18.863035)"><g><path d="M 2.140625 0 L 1.640625 0 L 1.390625 -0.71875 L 0.65625 -0.71875 L 0.40625 0 L 0 0 L 0.890625 -2.5 L 1.265625 -2.5 Z M 1.28125 -1.046875 C 1.175781 -1.378906 1.085938 -1.664062 1.015625 -1.90625 C 0.941406 -1.613281 0.859375 -1.328125 0.765625 -1.046875 Z M 1.28125 -1.046875 "/></g></g></g><g fill="#183e9f" fill-opacity="1"><g transform="translate(61.407785, 18.863035)"><g><path d="M 2.109375 0 L 1.5625 0 L 0.875 -1.109375 L 0.6875 -1.109375 L 0.6875 0 L 0.21875 0 L 0.21875 -2.28125 C 0.21875 -2.289062 0.207031 -2.328125 0.1875 -2.390625 C 0.175781 -2.453125 0.171875 -2.488281 0.171875 -2.5 L 1.03125 -2.5 C 1.28125 -2.5 1.484375 -2.441406 1.640625 -2.328125 C 1.796875 -2.222656 1.875 -2.050781 1.875 -1.8125 C 1.875 -1.664062 1.816406 -1.53125 1.703125 -1.40625 C 1.597656 -1.289062 1.476562 -1.21875 1.34375 -1.1875 Z M 1.375 -1.8125 C 1.375 -1.914062 1.335938 -2 1.265625 -2.0625 C 1.191406 -2.125 1.097656 -2.15625 0.984375 -2.15625 L 0.6875 -2.15625 L 0.6875 -1.4375 L 0.90625 -1.4375 C 1.21875 -1.4375 1.375 -1.5625 1.375 -1.8125 Z M 1.375 -1.8125 "/></g></g></g><g fill="#183e9f" fill-opacity="1"><g transform="translate(63.420958, 18.863035)"><g><path d="M 0.6875 0 L 0.21875 0 L 0.21875 -2.28125 C 0.21875 -2.28125 0.210938 -2.296875 0.203125 -2.328125 C 0.203125 -2.367188 0.195312 -2.40625 0.1875 -2.4375 C 0.175781 -2.46875 0.171875 -2.488281 0.171875 -2.5 L 0.6875 -2.5 Z M 0.6875 0 "/></g></g></g><path fill="#1b9ce4" d="M 8.238281 13.445312 C 8.238281 9.785156 11.207031 6.816406 14.867188 6.816406 C 16.539062 6.816406 18.066406 7.4375 19.234375 8.460938 C 17.964844 6.496094 15.753906 5.191406 13.238281 5.191406 C 9.304688 5.191406 6.113281 8.382812 6.113281 12.320312 C 6.113281 15.738281 8.519531 18.597656 11.734375 19.289062 C 9.652344 18.171875 8.238281 15.972656 8.238281 13.445312 " fill-opacity="1" fill-rule="nonzero"/><g clip-path="url(#07934e86a9)"><path fill="#183e9f" d="M 21.710938 3.460938 C 21.582031 3.410156 21.523438 3.546875 21.5 3.730469 C 21.457031 4.089844 21.601562 4.445312 21.871094 4.683594 C 24.714844 7.171875 24.160156 13.273438 22.304688 12.910156 C 21.085938 12.671875 22.382812 9.046875 21.367188 8.921875 C 20.691406 8.839844 20.09375 10.519531 20.136719 12.734375 C 20.160156 14.003906 20.566406 15.050781 20.925781 15.957031 C 21.441406 17.273438 20.964844 18.777344 19.773438 19.539062 C 15.984375 21.957031 10.890625 21.511719 7.582031 18.199219 C 5.832031 16.449219 4.882812 14.203125 4.730469 11.914062 C 4 15.304688 4.953125 18.984375 7.597656 21.617188 C 10.925781 24.929688 16.242188 25.621094 20.308594 23.269531 C 24.171875 21.039062 25.789062 16.449219 26.015625 12.183594 C 26.308594 6.757812 23.195312 4.015625 21.710938 3.460938 Z M 21.179688 6.429688 C 22.65625 7.726562 23.214844 10 23.148438 11.828125 C 23.378906 11.261719 23.503906 10.429688 23.476562 9.539062 C 23.4375 8.351562 23.15625 7.238281 22.679688 6.335938 C 22.070312 5.746094 21.464844 5.371094 21.015625 5.203125 C 20.878906 5.152344 20.824219 5.296875 20.800781 5.484375 C 20.761719 5.84375 20.910156 6.191406 21.179688 6.429688 " fill-opacity="1" fill-rule="nonzero"/></g><g clip-path="url(#b46a88a611)"><g clip-path="url(#78d6274e63)"><path fill="#183e9f" d="M 10.484375 10.417969 L 19.816406 10.417969 L 19.816406 18.613281 L 10.484375 18.613281 Z M 10.484375 10.417969 " fill-opacity="1" fill-rule="nonzero"/></g></g><g mask="url(#57b8ce492f)"><g transform="matrix(1, 0, 0, 1, 11, 12)"><g clip-path="url(#5de7716695)"><g clip-path="url(#996b966aae)"><g clip-path="url(#b369aaa4f3)"><path fill="#54afe6" d="M 0.4375 0.09375 L 7.863281 0.09375 L 7.863281 6.613281 L 0.4375 6.613281 Z M 0.4375 0.09375 " fill-opacity="1" fill-rule="nonzero"/></g></g></g></g></g></svg>